<svg xmlns="http://www.w3.org/2000/svg" viewBox="0 0 64 64">
  <rect width="64" height="64" rx="10" fill="#f5f4ef"/>
  <g fill="#11110f">
    <circle cx="9" cy="9" r="2.5"/><circle cx="18" cy="9" r="2.5"/><circle cx="27" cy="9" r="2.5"/><circle cx="36" cy="9" r="2.5"/><circle cx="45" cy="9" r="2.5"/><circle cx="54" cy="9" r="2.5"/>
    <circle cx="9" cy="18" r="2.5"/><circle cx="18" cy="18" r="2.5"/><circle cx="27" cy="18" r="2.5"/><circle cx="36" cy="18" r="2.5"/><circle cx="45" cy="18" r="2.5"/><circle cx="54" cy="18" r="2.5"/>
    <circle cx="9" cy="27" r="2.5"/><circle cx="18" cy="27" r="2.5"/><circle cx="27" cy="27" r="2.5"/><circle cx="36" cy="27" r="2.5"/><circle cx="45" cy="27" r="2.5"/>
    <circle cx="9" cy="36" r="2.5"/><circle cx="18" cy="36" r="2.5"/><circle cx="27" cy="36" r="2.5"/><circle cx="36" cy="36" r="2.5"/><circle cx="45" cy="36" r="2.5"/><circle cx="54" cy="36" r="2.5"/>
    <circle cx="9" cy="45" r="2.5"/><circle cx="18" cy="45" r="2.5"/><circle cx="27" cy="45" r="2.5"/><circle cx="36" cy="45" r="2.5"/><circle cx="45" cy="45" r="2.5"/><circle cx="54" cy="45" r="2.5"/>
    <circle cx="9" cy="54" r="2.5"/><circle cx="18" cy="54" r="2.5"/><circle cx="27" cy="54" r="2.5"/><circle cx="36" cy="54" r="2.5"/><circle cx="45" cy="54" r="2.5"/><circle cx="54" cy="54" r="2.5"/>
  </g>
  <g fill="#ff583d">
    <circle cx="9" cy="9" r="3.2"/><circle cx="18" cy="18" r="3.2"/><circle cx="27" cy="27" r="3.2"/><circle cx="36" cy="36" r="3.2"/><circle cx="45" cy="27" r="3.2"/>
  </g>
  <circle cx="55" cy="27" r="4.2" fill="#b8ff00"/>
</svg>
